<svg width="30" height="31" viewBox="0 0 30 31" fill="none" xmlns="http://www.w3.org/2000/svg">
<path d="M26.6441 5.24805H2.75664C2.24846 5.24805 1.83789 5.65861 1.83789 6.1668V24.5418C1.83789 25.05 2.24846 25.4605 2.75664 25.4605H26.6441C27.1523 25.4605 27.5629 25.05 27.5629 24.5418V6.1668C27.5629 5.65861 27.1523 5.24805 26.6441 5.24805ZM24.3243 8.37467L15.266 15.4232C15.0421 15.5983 14.7291 15.5983 14.5052 15.4232L5.44398 8.37467C5.40983 8.34831 5.38477 8.31192 5.37234 8.2706C5.3599 8.22929 5.3607 8.18512 5.37463 8.14428C5.38856 8.10345 5.41492 8.06799 5.45001 8.04289C5.4851 8.01778 5.52717 8.00429 5.57031 8.0043H24.198C24.2411 8.00429 24.2832 8.01778 24.3183 8.04289C24.3534 8.06799 24.3797 8.10345 24.3937 8.14428C24.4076 8.18512 24.4084 8.22929 24.3959 8.2706C24.3835 8.31192 24.3585 8.34831 24.3243 8.37467Z" fill="white"/>
</svg>
