<svg width="30" height="31" viewBox="0 0 30 31" fill="none" xmlns="http://www.w3.org/2000/svg">
<path d="M14.6984 15.4036C15.3722 15.4036 15.9492 15.1635 16.4294 14.6833C16.9088 14.2039 17.1484 13.6273 17.1484 12.9536C17.1484 12.2798 16.9088 11.7028 16.4294 11.2226C15.9492 10.7433 15.3722 10.5036 14.6984 10.5036C14.0247 10.5036 13.4481 10.7433 12.9687 11.2226C12.4885 11.7028 12.2484 12.2798 12.2484 12.9536C12.2484 13.6273 12.4885 14.2039 12.9687 14.6833C13.4481 15.1635 14.0247 15.4036 14.6984 15.4036ZM14.6984 27.1942C14.5351 27.1942 14.3718 27.1636 14.2084 27.1023C14.0451 27.0411 13.9022 26.9594 13.7797 26.8573C10.7989 24.2236 8.57344 21.7789 7.10344 19.5232C5.63344 17.2668 4.89844 15.1586 4.89844 13.1986C4.89844 10.1361 5.88375 7.69627 7.85436 5.87919C9.82416 4.06211 12.1055 3.15356 14.6984 3.15356C17.2914 3.15356 19.5727 4.06211 21.5425 5.87919C23.5131 7.69627 24.4984 10.1361 24.4984 13.1986C24.4984 15.1586 23.7634 17.2668 22.2934 19.5232C20.8234 21.7789 18.598 24.2236 15.6172 26.8573C15.4947 26.9594 15.3518 27.0411 15.1884 27.1023C15.0251 27.1636 14.8618 27.1942 14.6984 27.1942Z" fill="white"/>
</svg>
