<svg width="30" height="30" viewBox="0 0 30 30" fill="none" xmlns="http://www.w3.org/2000/svg">
<path d="M25.0977 21.4011L20.1181 16.8735C19.8827 16.6596 19.5734 16.5455 19.2554 16.5553C18.9375 16.5651 18.6358 16.6981 18.4141 16.9262L15.4827 19.9409C14.7771 19.8062 13.3585 19.364 11.8983 17.9074C10.4381 16.446 9.9959 15.0238 9.86483 14.3231L12.8771 11.3904C13.1055 11.1689 13.2386 10.8671 13.2485 10.5491C13.2583 10.2311 13.144 9.92171 12.9298 9.68646L8.4034 4.70806C8.18908 4.47208 7.8912 4.32893 7.57304 4.30903C7.25487 4.28913 6.94148 4.39404 6.69943 4.60149L4.04118 6.88121C3.82939 7.09377 3.70298 7.37666 3.68593 7.67624C3.66755 7.98249 3.3172 15.2369 8.9424 20.8646C13.8497 25.7707 19.9968 26.1296 21.6897 26.1296C21.9372 26.1296 22.0891 26.1223 22.1295 26.1198C22.4291 26.1031 22.7118 25.9761 22.9233 25.7634L25.2018 23.1039C25.4101 22.8626 25.5158 22.5495 25.4963 22.2313C25.4769 21.9132 25.3338 21.6152 25.0977 21.4011Z" fill="white"/>
</svg>
